<svg width="80" height="89" viewBox="0 0 80 89" fill="none" xmlns="http://www.w3.org/2000/svg">
<g clip-path="url(#clip0_3_25)">
<path d="M80 0H0V89H80V0Z" fill="#086682"/>
<path d="M12.9879 83.5121H9.84389L9.33989 85.0001H7.19189L10.2399 76.576H12.6159L15.6639 85.0001H13.4919L12.9879 83.5121ZM12.4599 81.9281L11.4159 78.8441L10.3839 81.9281H12.4599ZM22.5916 86.4401L21.5116 84.9881C21.1916 85.0521 20.8796 85.0841 20.5756 85.0841C19.7836 85.0841 19.0556 84.9001 18.3916 84.5321C17.7356 84.1641 17.2116 83.6521 16.8196 82.9961C16.4356 82.3321 16.2436 81.5881 16.2436 80.7641C16.2436 79.9401 16.4356 79.2001 16.8196 78.5441C17.2116 77.8881 17.7356 77.3761 18.3916 77.0081C19.0556 76.6401 19.7836 76.4561 20.5756 76.4561C21.3676 76.4561 22.0916 76.6401 22.7476 77.0081C23.4116 77.3761 23.9316 77.8881 24.3076 78.5441C24.6916 79.2001 24.8836 79.9401 24.8836 80.7641C24.8836 81.4841 24.7356 82.1441 24.4396 82.7441C24.1516 83.3361 23.7476 83.8281 23.2276 84.2201L25.0756 86.4401H22.5916ZM18.3436 80.7641C18.3436 81.5081 18.5436 82.1041 18.9436 82.5521C19.3516 82.9921 19.8956 83.2121 20.5756 83.2121C21.2476 83.2121 21.7836 82.9881 22.1836 82.5401C22.5916 82.0921 22.7956 81.5001 22.7956 80.7641C22.7956 80.0201 22.5916 79.4281 22.1836 78.9881C21.7836 78.5401 21.2476 78.3161 20.5756 78.3161C19.8956 78.3161 19.3516 78.5361 18.9436 78.9761C18.5436 79.4161 18.3436 80.0121 18.3436 80.7641ZM34.6516 76.576V78.2201H32.4196V85.0001H30.3676V78.2201H28.1356V76.576H34.6516ZM40.9254 83.5121H37.7814L37.2774 85.0001H35.1294L38.1774 76.576H40.5534L43.6014 85.0001H41.4294L40.9254 83.5121ZM40.3974 81.9281L39.3534 78.8441L38.3214 81.9281H40.3974ZM49.6891 85.0001L47.9731 82.4201L46.4611 85.0001H44.1331L46.8331 80.7161L44.0731 76.576H46.4611L48.1531 79.1201L49.6411 76.576H51.9691L49.2931 80.8241L52.0771 85.0001H49.6891ZM55.3021 80.7761C55.3021 79.9441 55.4822 79.2041 55.8422 78.5561C56.2022 77.9001 56.7022 77.3921 57.3422 77.0321C57.9902 76.6641 58.7222 76.4801 59.5382 76.4801C60.5382 76.4801 61.3942 76.7441 62.1062 77.2721C62.8182 77.8001 63.2942 78.5201 63.5342 79.4321H61.2782C61.1102 79.0801 60.8702 78.8121 60.5582 78.6281C60.2542 78.4441 59.9062 78.3521 59.5142 78.3521C58.8822 78.3521 58.3702 78.5721 57.9782 79.0121C57.5862 79.4521 57.3902 80.0401 57.3902 80.7761C57.3902 81.5121 57.5862 82.1001 57.9782 82.5401C58.3702 82.9801 58.8822 83.2001 59.5142 83.2001C59.9062 83.2001 60.2542 83.1081 60.5582 82.9241C60.8702 82.7401 61.1102 82.4721 61.2782 82.1201H63.5342C63.2942 83.0321 62.8182 83.7521 62.1062 84.2801C61.3942 84.8001 60.5382 85.0601 59.5382 85.0601C58.7222 85.0601 57.9902 84.8801 57.3422 84.5201C56.7022 84.1521 56.2022 83.6441 55.8422 82.9961C55.4822 82.3481 55.3021 81.6081 55.3021 80.7761ZM68.7748 85.0841C67.9828 85.0841 67.2548 84.9001 66.5908 84.5321C65.9348 84.1641 65.4108 83.6521 65.0188 82.9961C64.6348 82.3321 64.4428 81.5881 64.4428 80.7641C64.4428 79.9401 64.6348 79.2001 65.0188 78.5441C65.4108 77.8881 65.9348 77.3761 66.5908 77.0081C67.2548 76.6401 67.9828 76.4561 68.7748 76.4561C69.5668 76.4561 70.2908 76.6401 70.9468 77.0081C71.6108 77.3761 72.1308 77.8881 72.5068 78.5441C72.8908 79.2001 73.0828 79.9401 73.0828 80.7641C73.0828 81.5881 72.8908 82.3321 72.5068 82.9961C72.1228 83.6521 71.6028 84.1641 70.9468 84.5321C70.2908 84.9001 69.5668 85.0841 68.7748 85.0841ZM68.7748 83.2121C69.4468 83.2121 69.9828 82.9881 70.3828 82.5401C70.7908 82.0921 70.9948 81.5001 70.9948 80.7641C70.9948 80.0201 70.7908 79.4281 70.3828 78.9881C69.9828 78.5401 69.4468 78.3161 68.7748 78.3161C68.0948 78.3161 67.5508 78.5361 67.1428 78.9761C66.7428 79.4161 66.5428 80.0121 66.5428 80.7641C66.5428 81.5081 66.7428 82.1041 67.1428 82.5521C67.5508 82.9921 68.0948 83.2121 68.7748 83.2121Z" fill="white"/>
<path d="M47 9H39V65H47V9Z" fill="white"/>
<path d="M40 4C35.2724 4 30.5911 4.87943 26.2234 6.5881C21.8557 8.29676 17.8871 10.8012 14.5442 13.9584C11.2012 17.1156 8.5495 20.8637 6.74033 24.9888C4.93117 29.1138 4 33.5351 4 38C4 42.4649 4.93117 46.8862 6.74034 51.0112C8.54951 55.1363 11.2012 58.8844 14.5442 62.0416C17.8871 65.1988 21.8557 67.7032 26.2234 69.4119C30.5911 71.1206 35.2724 72 40 72V38V4Z" fill="white"/>
<path d="M31.9975 7.99936C34.7095 7.65582 38.9975 7.99936 38.9975 7.99936V66.9994H31.9975V14.9994C31.9975 14.9994 24 18 20 22.5C16 27 13.4975 37.9994 13.4975 37.9994C13.4975 37.9994 12.995 40.4994 13.4975 43.9994C14 47.4994 20 55.4994 20 55.4994L15.4975 58.4994C15.4975 58.4994 11.7226 54.8421 9.9975 51.9994C3.81081 41.8043 5.0227 31.5139 11.4975 21.4994C16.702 13.4495 22.4877 9.20402 31.9975 7.99936Z" fill="#1496C8"/>
<path d="M34 37H12V44H34V37Z" fill="#1496C8"/>
<path d="M39.5 69C43.6366 69 47.7328 68.1852 51.5545 66.6022C55.3763 65.0192 58.8488 62.6989 61.7739 59.7739C64.6989 56.8488 67.0192 53.3763 68.6022 49.5545C70.1852 45.7328 71 41.6366 71 37.5C71 33.3634 70.1852 29.2672 68.6022 25.4455C67.0192 21.6237 64.6989 18.1512 61.7739 15.2261C58.8488 12.3011 55.3763 9.98082 51.5545 8.39779C47.7328 6.81477 43.6366 6 39.5 6V15.45C42.3956 15.45 45.2629 16.0203 47.9382 17.1285C50.6134 18.2366 53.0442 19.8608 55.0917 21.9083C57.1392 23.9558 58.7634 26.3866 59.8715 29.0618C60.9797 31.7371 61.55 34.6044 61.55 37.5C61.55 40.3956 60.9797 43.2629 59.8715 45.9382C58.7634 48.6134 57.1392 51.0442 55.0917 53.0917C53.0442 55.1392 50.6134 56.7634 47.9382 57.8715C45.2629 58.9797 42.3956 59.55 39.5 59.55V69Z" fill="white"/>
<path d="M48 32.5038L53.4062 29.9033L74.9062 59.8645H68.0009L48 32.5038Z" fill="white"/>
</g>
<defs>
<clipPath id="clip0_3_25">
<rect width="80" height="89" fill="white"/>
</clipPath>
</defs>
</svg>
