<?xml version="1.0" standalone="no"?><svg xmlns:xlink="http://www.w3.org/1999/xlink" xmlns="http://www.w3.org/2000/svg" viewBox="0 0 1000 750.0093604912386" preserveAspectRatio="xMaxYMax slice"><g transform="scale(1.170061404822525)"><rect x="0" y="0" width="854.6666666666666" height="641" fill="#ffffff"/><rect x="0" y="0" width="213.66666666666666" height="213.66666666666666" fill="#ffffff"/><rect x="0" y="0" width="106.83" height="106.83" fill="#dbe9ee"/><path d="M 0 0 A 106.83 106.83 0 0 0 106.83 106.83 L 106.83 0L0 0" fill="#afced9"/><rect x="106.83" y="0" width="106.83" height="106.83" fill="#c8e7f4"/><path d="M 106.83 106.83 A 106.83 106.83 0 0 0 213.66 0 L 106.83 0L106.83 106.83" fill="#4db3da"/><rect x="0" y="106.83" width="106.83" height="106.83" fill="#5094ab"/><path d="M 0 213.66 A 106.83 106.83 0 0 1  106.83 106.83 L 106.83 213.66L0 213.66" fill="#599aaf"/><rect x="106.83" y="106.83" width="106.83" height="106.83" fill="#f4f8f9"/><path d="M 106.83 106.83 A 106.83 106.83 0 0 1 213.66 213.66 L 106.83 213.66L106.83 106.83" fill="#70a8ba"/><rect x="213.67" y="0" width="213.67" height="213.67" fill="#aeddee"/><path d="M 213.67 0 A 213.67 213.67 0 0 1  427.34 213.67 L 213.67 0 A 213.67 213.67 0 0 0 427.34 213.67" fill="#4cb2da"/><rect x="427.33" y="0" width="213.67" height="213.67" fill="#79adbf"/><polygon points="427.33,0 641,0 641,213.67" fill="#74aabc"/><rect x="641" y="0" width="213.66666666666666" height="213.66666666666666" fill="#ffffff"/><rect x="641" y="0" width="106.83" height="106.83" fill="#b9d4dd"/><path d="M 641 106.83 A 106.83 106.83 0 0 1 747.83 0 L 747.83 26.7075 A 80.1225 80.1225 0 0 0 667.7075 106.83" fill="#d3e4ea"/><rect x="747.83" y="0" width="106.83" height="106.83" fill="#48b1d9"/><path d="M 747.83 0 A 106.83 106.83 0 0 1 854.6600000000001 106.83 L 827.9525000000001 106.83 A 80.1225 80.1225 0 0 0 747.83 26.7075" fill="#9dc3d0"/><rect x="641" y="106.83" width="106.83" height="106.83" fill="#52b5db"/><path d="M 641 106.83 A 106.83 106.83 0 0 0 747.83 213.66 L 747.83 186.9525 A 80.1225 80.1225 0 0 1 667.7075 106.83" fill="#d1ecf6"/><rect x="747.83" y="106.83" width="106.83" height="106.83" fill="#116d8c"/><path d="M 747.83 213.66 A 106.83 106.83 0 0 0 854.6600000000001 106.83 L 827.9525000000001 106.83 A 80.1225 80.1225 0 0 1 747.83 186.9525" fill="#23a1d1"/><rect x="0" y="213.67" width="213.67" height="213.67" fill="#cde0e7"/><rect x="0" y="213.67" width="213.67" height="213.67" fill="#d9e8ed"/><rect x="213.66666666666666" y="213.66666666666666" width="213.66666666666666" height="213.66666666666666" fill="#ffffff"/><rect x="213.67" y="213.67" width="106.83" height="106.83" fill="#5f9db2"/><polygon points="320.5,213.67 320.5,320.5 213.67,320.5" fill="#36849e"/><rect x="320.5" y="213.67" width="106.83" height="106.83" fill="#468ea6"/><polygon points="320.5,213.67 427.33,320.5 320.5,320.5" fill="#81b2c2"/><rect x="213.67" y="320.5" width="106.83" height="106.83" fill="#e0ecf0"/><polygon points="213.67,320.5 320.5,320.5 320.5,427.33" fill="#c6e7f3"/><rect x="320.5" y="320.5" width="106.83" height="106.83" fill="#88cce6"/><polygon points="320.5,320.5 427.33,320.5 320.5,427.33" fill="#5c9bb0"/><rect x="427.3333333333333" y="213.66666666666666" width="213.66666666666666" height="213.66666666666666" fill="#ffffff"/><rect x="427.33" y="213.67" width="106.83" height="106.83" fill="#217794"/><path d="M 427.33 213.67 A 106.83 106.83 0 0 0 534.16 320.5 L 534.16 213.67L427.33 213.67" fill="#d5edf6"/><rect x="534.17" y="213.67" width="106.83" height="106.83" fill="#179ccf"/><path d="M 534.17 320.5 A 106.83 106.83 0 0 0 641 213.67 L 534.17 213.67L534.17 320.5" fill="#40add7"/><rect x="427.33" y="320.5" width="106.83" height="106.83" fill="#d3ecf6"/><path d="M 427.33 427.33 A 106.83 106.83 0 0 1  534.16 320.5 L 534.16 427.33L427.33 427.33" fill="#a8daed"/><rect x="534.17" y="320.5" width="106.83" height="106.83" fill="#b5e0f0"/><path d="M 534.17 320.5 A 106.83 106.83 0 0 1 641 427.33 L 534.17 427.33L534.17 320.5" fill="#5698ae"/><rect x="641" y="213.66666666666666" width="213.66666666666666" height="213.66666666666666" fill="#ffffff"/><rect x="641" y="213.67" width="106.83" height="106.83" fill="#bdd7df"/><circle cx="694.415" cy="267.085" r="53.415" fill="#7aaebf"/><rect x="747.83" y="213.67" width="106.83" height="106.83" fill="#f2f7f9"/><rect x="747.83" y="213.67" width="106.83" height="106.83" fill="#e8f1f4"/><rect x="641" y="320.5" width="106.83" height="106.83" fill="#189ccf"/><circle cx="694.415" cy="373.915" r="53.415" fill="#def1f8"/><rect x="747.83" y="320.5" width="106.83" height="106.83" fill="#197290"/><rect x="747.83" y="320.5" width="106.83" height="106.83" fill="#8acde7"/><rect x="0" y="427.3333333333333" width="213.66666666666666" height="213.66666666666666" fill="#ffffff"/><rect x="0" y="427.33" width="106.83" height="106.83" fill="#0e6c8b"/><path d="M 0 534.16 A 106.83 106.83 0 0 1  106.83 427.33 L 106.83 534.16L0 534.16" fill="#b8e1f0"/><rect x="106.83" y="427.33" width="106.83" height="106.83" fill="#17718f"/><path d="M 106.83 427.33 A 106.83 106.83 0 0 1 213.66 534.16 L 106.83 534.16L106.83 427.33" fill="#82b3c3"/><rect x="0" y="534.17" width="106.83" height="106.83" fill="#e4f3f9"/><path d="M 0 534.17 A 106.83 106.83 0 0 0 106.83 641 L 106.83 534.17L0 534.17" fill="#bfd8e0"/><rect x="106.83" y="534.17" width="106.83" height="106.83" fill="#6bc0e0"/><path d="M 106.83 641 A 106.83 106.83 0 0 0 213.66 534.17 L 106.83 534.17L106.83 641" fill="#fbfdfd"/><rect x="213.66666666666666" y="427.3333333333333" width="213.66666666666666" height="213.66666666666666" fill="#ffffff"/><rect x="213.67" y="427.33" width="106.83" height="106.83" fill="#70c2e1"/><polygon points="320.5,427.33 320.5,534.16 213.67,534.16" fill="#5496ac"/><rect x="320.5" y="427.33" width="106.83" height="106.83" fill="#5cb9dd"/><polygon points="320.5,427.33 427.33,534.16 320.5,534.16" fill="#b5dff0"/><rect x="213.67" y="534.17" width="106.83" height="106.83" fill="#207794"/><polygon points="213.67,534.17 320.5,534.17 320.5,641" fill="#27a3d2"/><rect x="320.5" y="534.17" width="106.83" height="106.83" fill="#c7dde4"/><polygon points="320.5,534.17 427.33,534.17 320.5,641" fill="#8ccee7"/><rect x="427.33" y="427.33" width="213.67" height="213.67" fill="#c5e6f3"/><polygon points="427.33,427.33 641,427.33 427.33,641" fill="#4e93aa"/><rect x="641" y="427.3333333333333" width="213.66666666666666" height="213.66666666666666" fill="#ffffff"/><rect x="641" y="427.33" width="106.83" height="106.83" fill="#d8e7ec"/><polygon points="747.83,427.33 747.83,534.16 641,534.16" fill="#86cbe6"/><rect x="747.83" y="427.33" width="106.83" height="106.83" fill="#66bedf"/><polygon points="747.83,427.33 854.6600000000001,534.16 747.83,534.16" fill="#e9f6fa"/><rect x="641" y="534.17" width="106.83" height="106.83" fill="#0f98cd"/><polygon points="641,534.17 747.83,534.17 641,641" fill="#d3e4ea"/><rect x="747.83" y="534.17" width="106.83" height="106.83" fill="#0b6a8a"/><polygon points="747.83,534.17 854.6600000000001,534.17 854.6600000000001,641" fill="#e7f0f4"/></g></svg>